<?xml version="1.0" standalone="no"?>
<!DOCTYPE svg PUBLIC "-//W3C//DTD SVG 20010904//EN"
 "http://www.w3.org/TR/2001/REC-SVG-20010904/DTD/svg10.dtd">
<svg version="1.0" xmlns="http://www.w3.org/2000/svg"
 width="1024.000000pt" height="1024.000000pt" viewBox="0 0 1024.000000 1024.000000"
 preserveAspectRatio="xMidYMid meet">
<metadata>
Created by potrace 1.14, written by Peter Selinger 2001-2017
</metadata>
<g transform="translate(0.000000,1024.000000) scale(0.100000,-0.100000)"
fill="#000000" stroke="none">
<path d="M0 9808 l1 -433 31 40 c18 22 104 114 193 205 237 243 544 565 566
595 l20 25 -405 0 -406 0 0 -432z"/>
<path d="M770 10043 c-102 -108 -317 -330 -477 -493 l-293 -298 0 -91 0 -90
167 172 c93 95 238 244 324 332 86 88 201 210 257 270 55 61 144 153 197 205
53 52 115 116 137 143 l40 47 -84 -1 -83 0 -185 -196z"/>
<path d="M1084 10017 c-116 -122 -246 -260 -289 -307 -117 -128 -721 -725
-761 -752 l-34 -23 0 -180 0 -180 27 35 c36 46 118 134 288 310 77 80 197 204
265 276 69 72 217 225 330 340 199 203 440 456 550 579 30 33 68 75 84 93 l30
32 -140 0 -139 -1 -211 -222z"/>
<path d="M1678 10231 c-7 -22 -546 -596 -883 -941 -121 -124 -314 -324 -430
-445 -115 -121 -244 -254 -287 -296 l-78 -76 0 -142 0 -142 52 63 c50 60 146
161 474 498 83 85 209 216 280 291 71 75 264 278 429 451 165 173 391 412 503
531 l203 217 -130 0 c-72 0 -131 -4 -133 -9z"/>
<path d="M2064 10196 c-164 -187 -1514 -1594 -1911 -1993 l-153 -153 0 -92 0
-92 67 74 c37 41 111 118 163 171 127 128 494 508 891 924 178 187 396 414
484 505 149 154 514 542 613 652 l44 48 -79 0 -80 0 -39 -44z"/>
<path d="M2855 10208 c-15 -18 -113 -123 -219 -233 -105 -111 -265 -279 -356
-375 -91 -96 -289 -303 -441 -460 -152 -157 -343 -357 -425 -445 -216 -232
-382 -403 -704 -730 -158 -159 -325 -331 -371 -380 -46 -50 -142 -152 -212
-227 l-128 -137 3 -84 3 -84 59 66 c32 36 107 116 165 176 58 61 164 173 236
250 151 163 291 309 570 596 110 113 310 322 445 465 135 142 299 315 365 384
66 69 264 278 440 465 175 187 415 437 532 556 117 119 213 219 213 223 0 3
-33 6 -74 6 -71 0 -75 -1 -101 -32z"/>
<path d="M2898 9942 c-157 -163 -324 -338 -370 -388 -154 -167 -581 -618 -753
-794 -94 -96 -204 -211 -245 -255 -113 -122 -218 -231 -565 -590 -176 -181
-405 -420 -509 -530 -103 -110 -248 -264 -322 -342 l-134 -141 0 -3451 0
-3451 3530 0 c2292 0 3530 3 3530 10 0 5 146 157 324 337 178 181 352 360 387
399 159 178 471 516 544 589 44 44 314 321 599 615 286 294 701 716 923 937
l403 403 0 3475 0 3475 -3289 0 c-3220 0 -3290 0 -3303 -19 -21 -30 -119 -133
-452 -476 -352 -363 -487 -503 -700 -731 -82 -87 -219 -231 -305 -319 -86 -88
-187 -194 -226 -235 -110 -119 -470 -494 -715 -745 -124 -126 -315 -324 -425
-439 -323 -338 -355 -368 -355 -337 0 6 5 13 10 16 6 4 8 16 4 27 -5 16 -3 20
9 15 16 -6 42 15 31 25 -3 4 55 68 128 144 73 76 205 212 293 303 283 293 588
612 731 766 76 82 252 266 389 410 294 306 642 669 670 700 11 11 49 52 85 91
35 38 219 226 408 418 189 192 348 358 353 368 9 16 5 18 -50 18 -65 0 -54 7
-165 -113 -16 -18 -199 -205 -405 -417 -392 -401 -555 -570 -680 -705 -41 -44
-115 -123 -165 -175 -50 -53 -124 -131 -165 -175 -335 -360 -522 -554 -967
-1005 -171 -173 -329 -335 -350 -359 -21 -24 -68 -73 -103 -110 -35 -36 -71
-75 -80 -86 -38 -45 -121 -118 -127 -113 -11 11 370 427 746 813 150 155 259
270 534 565 29 30 94 100 146 155 53 55 174 183 270 285 96 102 254 266 350
365 97 99 224 233 283 297 60 64 199 209 310 321 174 175 343 355 411 435 l19
22 -104 -1 -104 -1 -287 -296z m942 233 c-7 -9 -15 -13 -19 -10 -3 3 1 10 9
15 21 14 24 12 10 -5z m-310 -335 c-6 -11 -21 -20 -33 -20 -22 0 -22 1 3 20
32 25 43 25 30 0z m5633 -182 c-85 -113 -193 -326 -313 -618 -70 -170 -208
-522 -254 -647 -25 -68 -52 -136 -61 -153 -8 -16 -39 -100 -69 -187 -29 -87
-71 -198 -91 -248 -21 -49 -55 -139 -77 -198 -49 -139 -100 -247 -111 -240 -5
3 -6 -5 -3 -18 3 -13 3 -18 0 -11 -3 6 -11 9 -16 6 -7 -4 -8 -2 -4 4 5 8 0 12
-12 12 -11 0 -23 -7 -26 -15 -4 -10 -15 -14 -33 -12 -25 3 -66 -20 -53 -30 3
-3 -3 -9 -13 -15 -10 -5 -21 -8 -23 -5 -3 3 10 43 30 89 64 152 136 345 261
698 36 102 72 199 80 217 8 17 15 34 15 37 0 23 206 564 255 671 54 115 86
203 76 209 -4 3 -46 -20 -92 -50 -46 -30 -106 -66 -132 -80 -26 -14 -73 -41
-104 -61 -31 -19 -115 -67 -187 -105 -72 -39 -224 -122 -338 -185 -226 -125
-615 -313 -865 -419 -510 -217 -1209 -443 -2188 -709 -93 -25 -241 -66 -327
-91 -86 -24 -225 -62 -310 -84 -181 -46 -365 -97 -377 -105 -5 -3 -12 -29 -16
-58 -10 -75 -66 -411 -120 -712 -58 -322 -86 -488 -129 -770 -19 -121 -43
-258 -55 -305 -29 -123 -33 -150 -25 -150 4 0 50 33 103 73 53 41 143 107 201
147 58 41 150 105 205 144 423 296 514 344 810 429 213 61 255 71 255 62 0
-19 -25 -47 -72 -81 -91 -66 -382 -338 -893 -834 -123 -119 -474 -481 -598
-617 -86 -95 -74 -107 46 -46 122 61 347 162 347 154 0 -4 -20 -38 -44 -76
-93 -146 -204 -345 -261 -465 -68 -144 -117 -221 -215 -340 -72 -87 -77 -94
-131 -168 -17 -23 -35 -40 -40 -36 -5 3 -9 -2 -9 -11 0 -9 -9 -28 -20 -42 -11
-14 -20 -21 -20 -15 0 5 -9 8 -20 5 -15 -4 -20 0 -20 15 0 11 -7 23 -16 26 -9
4 -12 11 -7 18 4 7 6 23 5 35 -2 11 2 24 8 28 5 3 8 11 4 16 -3 5 0 8 7 7 7
-2 18 7 24 20 5 12 13 22 17 22 5 0 8 5 8 11 0 6 -6 7 -12 2 -7 -4 -3 6 10 22
209 267 250 326 286 411 21 49 44 99 52 112 8 12 13 22 10 22 -9 0 -216 -132
-378 -242 -236 -159 -333 -201 -312 -136 9 32 145 210 214 283 32 33 91 103
133 155 402 504 573 695 947 1054 154 148 280 273 280 278 0 6 -21 -6 -47 -25
-27 -19 -111 -78 -188 -132 -268 -188 -654 -481 -785 -598 -40 -35 -85 -72
-101 -81 -28 -16 -29 -16 -29 1 0 10 12 68 26 128 14 61 34 163 44 227 10 65
30 175 45 245 14 71 64 369 111 663 47 294 97 589 110 655 14 66 34 181 44
255 26 175 56 349 62 355 2 3 76 23 164 46 332 85 502 130 589 154 50 13 241
65 425 115 987 269 1353 385 1975 627 273 106 702 305 970 451 379 205 725
398 920 512 89 52 236 149 388 255 79 56 97 65 80 43z m-5708 -18 c3 -5 1 -10
-4 -10 -6 0 -11 5 -11 10 0 6 2 10 4 10 3 0 8 -4 11 -10z m-75 -134 c0 -3 -4
-8 -10 -11 -5 -3 -10 -1 -10 4 0 6 5 11 10 11 6 0 10 -2 10 -4z m-650 -630 c0
-2 -8 -10 -17 -17 -16 -13 -17 -12 -4 4 13 16 21 21 21 13z m5450 -284 c0 -4
-16 -24 -36 -43 -20 -18 -62 -72 -94 -119 -32 -47 -68 -94 -80 -105 -21 -19
-73 -91 -76 -107 -1 -5 -2 -26 -3 -49 0 -22 -5 -38 -10 -35 -13 8 -63 -45 -57
-60 3 -8 -1 -19 -8 -27 -7 -7 -19 -30 -27 -51 -8 -21 -20 -41 -26 -43 -7 -3
-13 -14 -13 -24 0 -36 -28 -89 -43 -83 -17 6 -72 -89 -106 -186 -13 -36 -27
-69 -31 -75 -16 -22 -100 -194 -129 -265 -39 -94 -51 -113 -51 -83 0 12 4 23
8 25 10 4 83 190 77 196 -3 3 -14 -17 -25 -44 -31 -75 -58 -133 -96 -206 -47
-91 -65 -143 -70 -208 -6 -65 -27 -103 -53 -95 -12 4 -30 -10 -62 -47 -24 -29
-74 -84 -111 -122 -38 -38 -68 -77 -68 -85 0 -19 -57 -60 -123 -89 -57 -25
-74 -41 -79 -73 -3 -22 0 -24 40 -23 23 0 42 -2 42 -5 0 -13 -84 -142 -124
-191 -25 -30 -89 -116 -143 -190 -117 -163 -192 -252 -206 -243 -6 3 -7 1 -3
-6 9 -13 -29 -68 -154 -226 -48 -60 -159 -211 -245 -335 -193 -275 -192 -274
-197 -258 -3 9 -10 8 -23 -5 -13 -14 -15 -21 -6 -30 8 -8 11 -8 11 3 0 7 3 11
6 7 3 -3 -22 -46 -57 -96 -36 -52 -66 -86 -70 -80 -5 8 -8 8 -13 0 -4 -6 -2
-11 3 -11 18 0 12 -14 -26 -61 -21 -26 -64 -83 -97 -127 -32 -45 -62 -79 -67
-77 -4 3 -11 0 -15 -6 -5 -8 -3 -9 6 -4 8 5 11 3 8 -6 -3 -8 -11 -13 -17 -12
-6 2 -11 -5 -11 -16 0 -10 -26 -54 -58 -97 -32 -44 -73 -100 -92 -126 -18 -27
-36 -46 -39 -43 -2 3 1 11 7 17 8 8 9 15 1 25 -9 10 -7 13 10 13 18 0 21 6 21
40 l0 40 -70 0 c-63 0 -70 -2 -70 -20 0 -11 -4 -20 -10 -20 -5 0 -10 -9 -10
-20 0 -17 -7 -20 -40 -20 -33 0 -40 -3 -40 -20 0 -17 -7 -20 -40 -20 -33 0
-40 -3 -40 -20 0 -18 -7 -20 -60 -20 -53 0 -60 -2 -60 -20 0 -13 -7 -20 -20
-20 -11 0 -20 -4 -20 -10 0 -6 -26 -10 -59 -10 -54 0 -59 2 -65 24 -3 14 -3
33 0 43 4 10 -40 -52 -98 -137 -57 -85 -113 -168 -125 -185 -11 -16 -72 -106
-133 -200 -130 -196 -220 -340 -499 -800 -54 -88 -138 -225 -187 -305 -107
-171 -218 -376 -338 -625 -48 -99 -108 -214 -133 -255 -48 -77 -165 -241 -170
-236 -6 5 50 163 74 211 14 27 54 120 89 205 114 281 246 561 349 745 28 50
84 149 124 220 126 224 350 594 456 755 57 85 137 209 178 275 442 702 760
1139 918 1261 31 24 59 40 63 37 3 -4 6 -2 6 3 0 6 7 19 15 30 13 17 14 16 4
-14 -12 -34 -29 -52 -29 -30 0 7 -6 2 -14 -12 -74 -134 -187 -330 -234 -402
-31 -50 -78 -123 -104 -164 -69 -107 -80 -131 -63 -131 8 0 12 3 10 7 -5 8 32
40 46 40 7 0 5 -10 -5 -25 -20 -31 -20 -35 2 -35 20 0 42 38 42 71 0 23 28 55
38 44 4 -4 1 -10 -5 -12 -7 -3 -13 -15 -13 -28 0 -14 -11 -45 -25 -70 -21 -37
-23 -45 -10 -45 9 0 22 6 28 13 60 66 68 79 25 38 l-47 -44 49 99 c26 55 75
137 109 182 92 125 216 319 366 575 31 54 86 133 122 175 66 79 99 130 89 139
-13 13 -341 -197 -416 -266 -25 -23 -65 -54 -90 -68 -25 -15 -63 -41 -85 -57
-65 -50 -308 -270 -456 -415 -76 -74 -142 -130 -148 -127 -6 4 -9 1 -6 -7 3
-7 -4 -22 -16 -33 -22 -19 -22 -19 -16 5 7 27 1 22 -41 -38 -17 -24 -69 -84
-115 -135 -47 -50 -99 -108 -117 -128 -17 -21 -36 -36 -40 -33 -4 3 -11 -2
-14 -11 -4 -10 -2 -13 7 -8 20 12 -34 -43 -84 -85 -26 -23 -46 -34 -46 -26 0
8 4 12 9 9 4 -3 8 0 8 5 0 13 -3 13 -24 5 -9 -3 -16 -15 -16 -25 0 -10 -4 -19
-10 -19 -5 0 -10 11 -10 25 0 18 -4 23 -15 19 -18 -7 -20 7 -3 24 8 8 8 12 1
12 -13 0 -118 -162 -172 -267 -30 -58 -74 -116 -151 -203 -104 -115 -225 -230
-243 -230 -16 0 46 99 132 213 202 267 477 743 619 1072 27 63 52 138 52 158
0 11 -25 8 -76 -9 -25 -8 -48 -13 -51 -10 -10 9 78 104 175 189 53 46 135 121
182 167 47 45 120 114 163 152 l77 70 -31 -68 c-33 -74 -46 -94 -35 -54 21 75
-131 -211 -191 -359 -19 -47 -46 -113 -59 -146 -33 -80 -15 -59 45 55 28 52
51 91 51 85 0 -5 -27 -63 -61 -128 -33 -65 -59 -121 -57 -123 3 -2 24 20 47
49 24 28 104 117 180 197 117 124 353 391 471 534 50 60 364 423 524 606 75
85 216 247 313 360 244 284 376 414 486 479 49 29 87 55 85 57 -2 1 -42 -12
-88 -31 -47 -19 -184 -59 -305 -89 -121 -30 -240 -62 -265 -71 -25 -9 -108
-32 -185 -51 -156 -39 -204 -54 -421 -130 -82 -29 -222 -71 -309 -94 -219 -58
-368 -114 -435 -163 -148 -109 -405 -355 -487 -467 -22 -30 -52 -66 -67 -79
-32 -30 -33 -23 -7 97 10 48 22 110 26 137 3 28 19 111 35 185 35 165 102 513
131 675 29 169 28 165 43 165 7 0 114 29 237 64 123 35 303 85 399 111 96 26
211 57 255 70 44 13 179 51 300 84 121 33 235 65 254 70 19 6 36 10 37 8 3 -3
-138 -185 -235 -303 -35 -44 -80 -104 -99 -134 -20 -30 -61 -86 -92 -125 -82
-103 -190 -286 -190 -324 0 -16 20 -4 102 62 57 45 161 122 231 171 116 79
131 87 153 77 13 -6 24 -16 24 -22 0 -6 71 61 158 149 86 88 175 171 197 184
58 36 177 160 296 308 88 109 111 131 149 146 25 9 83 32 130 51 128 52 190
73 190 64 0 -4 -24 -27 -52 -51 -70 -58 -218 -202 -218 -211 0 -4 14 -4 31 1
17 5 29 6 27 2 -6 -15 -164 -216 -231 -295 -61 -72 -104 -143 -93 -154 2 -2
39 25 82 61 80 66 104 85 335 256 70 52 224 181 341 287 117 105 249 223 293
262 68 61 110 87 285 174 296 149 570 292 685 357 123 70 155 83 155 62z
m-189 -1359 c-12 -20 -14 -14 -5 12 4 9 9 14 11 11 3 -2 0 -13 -6 -23z m-2640
-11 c-11 -16 -28 -35 -38 -43 -9 -8 -2 5 17 29 38 48 52 57 21 14z m-82 -101
c-13 -16 -28 -30 -33 -30 -5 -1 -1 9 10 21 10 12 24 28 29 34 22 26 16 3 -6
-25z m-39 -44 c0 -2 -12 -14 -27 -28 -20 -18 -24 -19 -13 -4 18 24 40 42 40
32z m-4710 -61 c0 -3 -4 -8 -10 -11 -5 -3 -10 -1 -10 4 0 6 5 11 10 11 6 0 10
-2 10 -4z m-40 -46 c0 -5 -5 -10 -11 -10 -5 0 -7 5 -4 10 3 6 8 10 11 10 2 0
4 -4 4 -10z m-160 -4 c0 -3 -4 -8 -10 -11 -5 -3 -10 -1 -10 4 0 6 5 11 10 11
6 0 10 -2 10 -4z m142 -67 c-21 -24 -26 -24 -19 1 3 11 1 23 -4 26 -5 3 -7 10
-3 15 4 6 13 4 24 -6 17 -16 17 -18 2 -36z m-32 -22 c0 -7 -23 -34 -50 -60
-28 -27 -50 -44 -50 -38 0 5 10 20 23 32 12 12 16 19 10 15 -7 -4 -13 -2 -13
4 0 7 8 14 19 17 10 2 24 15 31 29 13 23 30 24 30 1z m-265 -107 c-16 -16 -31
-28 -34 -25 -2 3 8 19 24 35 16 16 31 28 34 25 2 -3 -8 -19 -24 -35z m124 -43
c-2 -1 -13 -9 -24 -17 -19 -14 -19 -14 -6 3 7 9 18 17 24 17 6 0 8 -1 6 -3z
m6731 -57 c0 -5 -5 -10 -11 -10 -5 0 -7 5 -4 10 3 6 8 10 11 10 2 0 4 -4 4
-10z m782 -1448 c-6 -15 -13 -36 -17 -47 -5 -16 -8 -17 -15 -5 -7 11 -16 -1
-37 -50 -15 -36 -49 -107 -75 -159 -27 -51 -48 -101 -48 -111 0 -10 -14 -57
-30 -106 -18 -52 -28 -72 -24 -49 15 95 23 160 19 163 -16 16 -141 -115 -212
-222 -84 -129 -524 -706 -652 -856 -92 -108 -214 -241 -250 -274 -19 -17 -52
-48 -73 -69 -21 -21 -42 -35 -48 -32 -15 9 -229 -150 -269 -201 -12 -15 -23
-25 -26 -23 -9 10 189 241 262 306 133 117 321 314 400 418 41 55 113 165 160
245 86 146 119 200 179 299 33 53 81 185 106 290 12 52 17 58 93 113 235 170
312 227 430 319 71 55 131 96 133 89 2 -6 -1 -23 -6 -38z m-3327 -15 c-8 -21
-18 -37 -20 -37 -3 0 2 16 10 36 8 20 15 39 15 42 0 3 2 3 5 0 3 -3 -2 -21
-10 -41z m1991 -999 c-96 -103 -470 -468 -474 -463 -8 8 70 125 96 144 46 35
5 25 -189 -45 -101 -36 -389 -132 -640 -214 -250 -82 -475 -158 -500 -169 -64
-29 -73 -27 -47 13 13 19 25 34 28 33 3 -1 50 30 105 69 206 147 286 192 455
259 108 43 494 185 775 285 105 38 242 88 305 113 160 64 167 62 86 -25z
m-1306 -118 c-38 -48 -55 -45 -20 3 35 47 45 56 48 46 2 -5 -11 -27 -28 -49z
m-56 -75 c-9 -14 -18 -25 -20 -25 -2 0 2 11 8 25 6 14 15 25 20 25 5 0 1 -11
-8 -25z m-43 -58 c-10 -9 -11 -8 -5 6 3 10 9 15 12 12 3 -3 0 -11 -7 -18z
m-191 -341 c0 -2 -8 -10 -17 -17 -16 -13 -17 -12 -4 4 13 16 21 21 21 13z
m-1448 -368 c-6 -6 -16 -7 -23 -3 -9 6 -7 12 7 22 21 15 34 -1 16 -19z m1228
-292 c0 -2 -8 -10 -17 -17 -16 -13 -17 -12 -4 4 13 16 21 21 21 13z m4580 -66
c0 -5 -2 -10 -4 -10 -3 0 -8 5 -11 10 -3 6 -1 10 4 10 6 0 11 -4 11 -10z m70
-59 c0 -6 -4 -12 -8 -15 -5 -3 -9 1 -9 9 0 8 4 15 9 15 4 0 8 -4 8 -9z m-1275
-11 c3 -5 1 -10 -4 -10 -6 0 -11 5 -11 10 0 6 2 10 4 10 3 0 8 -4 11 -10z
m290 -40 c3 -5 -1 -10 -9 -10 -9 0 -16 5 -16 10 0 6 4 10 9 10 6 0 13 -4 16
-10z m895 -40 c0 -5 -5 -10 -11 -10 -5 0 -7 5 -4 10 3 6 8 10 11 10 2 0 4 -4
4 -10z m275 0 c-3 -5 -12 -10 -18 -10 -7 0 -6 4 3 10 19 12 23 12 15 0z m-605
-50 c0 -5 -5 -10 -11 -10 -5 0 -7 5 -4 10 3 6 8 10 11 10 2 0 4 -4 4 -10z
m324 2 c3 -5 -1 -9 -9 -9 -8 0 -15 4 -15 9 0 4 4 8 9 8 6 0 12 -4 15 -8z m241
-2 c-3 -5 -10 -10 -16 -10 -5 0 -9 5 -9 10 0 6 7 10 16 10 8 0 12 -4 9 -10z
m-285 -10 c0 -5 -5 -10 -11 -10 -5 0 -7 5 -4 10 3 6 8 10 11 10 2 0 4 -4 4
-10z m250 -5 c0 -3 -13 -19 -30 -37 -35 -36 -39 -30 -8 12 19 27 38 39 38 25z
m-1136 -20 c3 -8 1 -15 -4 -15 -6 0 -10 7 -10 15 0 8 2 15 4 15 2 0 6 -7 10
-15z m-234 -25 c0 -5 -2 -10 -4 -10 -3 0 -8 5 -11 10 -3 6 -1 10 4 10 6 0 11
-4 11 -10z m1034 -6 c3 -8 2 -12 -4 -9 -6 3 -10 10 -10 16 0 14 7 11 14 -7z
m39 -5 c3 -12 1 -19 -5 -17 -13 5 -20 38 -8 38 4 0 10 -9 13 -21z m27 11 c0
-5 -2 -10 -4 -10 -3 0 -8 5 -11 10 -3 6 -1 10 4 10 6 0 11 -4 11 -10z m200
-30 c0 -5 -8 -10 -17 -10 -15 0 -16 2 -3 10 19 12 20 12 20 0z m-170 -14 c0
-2 -7 -9 -15 -16 -13 -11 -14 -10 -9 4 5 14 24 23 24 12z m-1030 -16 c0 -5 -4
-10 -10 -10 -5 0 -10 5 -10 10 0 6 5 10 10 10 6 0 10 -4 10 -10z m65 0 c3 -6
-4 -10 -17 -10 -18 0 -20 2 -8 10 19 12 18 12 25 0z m863 -25 c-3 -3 -9 2 -12
12 -6 14 -5 15 5 6 7 -7 10 -15 7 -18z m-1078 -4 c0 -4 -11 -13 -25 -19 l-26
-12 18 24 c17 22 33 26 33 7z m1300 5 c0 -3 -4 -8 -10 -11 -5 -3 -10 -1 -10 4
0 6 5 11 10 11 6 0 10 -2 10 -4z m-277 -31 c-3 -9 -8 -14 -10 -11 -3 3 -2 9 2
15 9 16 15 13 8 -4z m-4942 -62 c-37 -45 -146 -223 -199 -324 -13 -26 -34 -57
-48 -70 -23 -21 -24 -21 -24 -3 0 47 164 326 235 400 59 63 89 59 36 -3z
m3799 33 c0 -3 -4 -8 -10 -11 -5 -3 -10 -1 -10 4 0 6 5 11 10 11 6 0 10 -2 10
-4z m-43 -38 c-3 -8 -6 -5 -6 6 -1 11 2 17 5 13 3 -3 4 -12 1 -19z m1273 12
c0 -5 -4 -10 -10 -10 -5 0 -10 5 -10 10 0 6 5 10 10 10 6 0 10 -4 10 -10z
m-130 -10 c0 -5 -4 -10 -10 -10 -5 0 -10 5 -10 10 0 6 5 10 10 10 6 0 10 -4
10 -10z m235 0 c-3 -5 -11 -10 -16 -10 -6 0 -7 5 -4 10 3 6 11 10 16 10 6 0 7
-4 4 -10z m-135 -10 c0 -5 -4 -10 -10 -10 -5 0 -10 5 -10 10 0 6 5 10 10 10 6
0 10 -4 10 -10z m-1125 -20 c3 -5 1 -10 -4 -10 -6 0 -11 5 -11 10 0 6 2 10 4
10 3 0 8 -4 11 -10z m1055 -5 c-6 -8 -8 -20 -4 -27 5 -10 4 -10 -6 -1 -11 10
-11 15 0 28 7 8 15 15 17 15 3 0 0 -7 -7 -15z m-40 -5 c0 -5 -4 -10 -10 -10
-5 0 -10 5 -10 10 0 6 5 10 10 10 6 0 10 -4 10 -10z m-115 -40 c-3 -5 -12 -10
-18 -10 -7 0 -6 4 3 10 19 12 23 12 15 0z m295 6 c0 -3 -4 -8 -10 -11 -5 -3
-10 -1 -10 4 0 6 5 11 10 11 6 0 10 -2 10 -4z m-280 -32 c0 -8 -5 -12 -10 -9
-6 4 -8 11 -5 16 9 14 15 11 15 -7z m130 1 c-7 -9 -15 -13 -19 -10 -3 3 1 10
9 15 21 14 24 12 10 -5z m120 5 c0 -5 -4 -10 -9 -10 -6 0 -13 5 -16 10 -3 6 1
10 9 10 9 0 16 -4 16 -10z m-194 -32 c-18 -26 -22 -17 -5 14 6 11 13 17 16 15
3 -3 -2 -16 -11 -29z m169 2 c-3 -5 -11 -10 -16 -10 -6 0 -7 5 -4 10 3 6 11
10 16 10 6 0 7 -4 4 -10z m-286 -32 c-7 -13 -6 -18 3 -18 10 0 10 -2 -1 -9 -7
-5 -11 -13 -8 -18 3 -5 0 -10 -7 -10 -13 0 -14 36 -2 56 3 5 0 11 -6 14 -7 3
-3 4 9 4 17 -1 20 -4 12 -19z m256 12 c3 -5 -1 -10 -10 -10 -9 0 -13 5 -10 10
3 6 8 10 10 10 2 0 7 -4 10 -10z m-1140 -10 c3 -5 1 -10 -4 -10 -6 0 -11 5
-11 10 0 6 2 10 4 10 3 0 8 -4 11 -10z m842 -29 c0 -11 -5 -18 -9 -15 -4 3 -5
11 -1 19 7 21 12 19 10 -4z m148 3 c-9 -9 -19 -13 -23 -10 -3 4 0 11 8 16 24
15 33 11 15 -6z m120 6 c3 -5 2 -10 -4 -10 -5 0 -13 5 -16 10 -3 6 -2 10 4 10
5 0 13 -4 16 -10z m-311 -41 c8 -9 6 -9 -9 -2 -11 6 -25 8 -32 6 -6 -2 -14 1
-18 7 -9 14 45 5 59 -11z m266 -20 c0 -6 -4 -7 -10 -4 -5 3 -10 11 -10 16 0 6
5 7 10 4 6 -3 10 -11 10 -16z m-140 -18 c-13 -24 -28 -27 -36 -7 -3 8 -12 12
-19 10 -7 -3 -15 -1 -19 4 -3 5 4 8 15 7 11 -1 24 -7 29 -15 6 -10 11 -8 21 8
17 27 24 21 9 -7z m-293 -3 c-3 -8 -6 -5 -6 6 -1 11 2 17 5 13 3 -3 4 -12 1
-19z m43 7 c10 -12 10 -15 -4 -15 -9 0 -16 7 -16 15 0 8 2 15 4 15 2 0 9 -7
16 -15z m337 -17 c-3 -7 -5 -2 -5 12 0 14 2 19 5 13 2 -7 2 -19 0 -25z m24 -1
c-10 -9 -11 -8 -5 6 3 10 9 15 12 12 3 -3 0 -11 -7 -18z m-281 -7 c0 -5 -2
-10 -4 -10 -3 0 -8 5 -11 10 -3 6 -1 10 4 10 6 0 11 -4 11 -10z m106 -2 c-12
-7 -21 -7 -28 0 -6 6 0 10 18 10 23 0 24 -2 10 -10z m-166 -29 c0 -5 -4 -9
-10 -9 -5 0 -10 7 -10 16 0 8 5 12 10 9 6 -3 10 -10 10 -16z m144 0 c-6 -11
-24 -2 -24 11 0 5 7 7 15 4 8 -4 12 -10 9 -15z m-24 -44 c0 -5 -5 -3 -10 5 -7
11 -10 11 -10 2 0 -7 -4 -10 -10 -7 -5 3 -10 11 -10 16 0 6 5 7 10 4 6 -3 10
0 10 7 0 9 3 9 10 -2 5 -8 10 -19 10 -25z m-200 8 c0 -2 -6 -11 -14 -18 -12
-12 -14 -11 -12 9 0 14 6 22 14 19 6 -3 12 -7 12 -10z m50 13 c0 -3 -4 -8 -10
-11 -5 -3 -10 -1 -10 4 0 6 5 11 10 11 6 0 10 -2 10 -4z m95 -25 c-3 -5 -1
-12 5 -16 5 -3 10 -11 10 -18 0 -6 -6 -2 -14 8 -13 18 -13 35 0 35 3 0 3 -4
-1 -9z m-42 -24 c3 -7 -3 -13 -13 -13 -10 0 -16 6 -13 13 3 7 9 13 13 13 4 0
10 -6 13 -13z m87 3 c0 -5 -4 -10 -10 -10 -5 0 -10 5 -10 10 0 6 5 10 10 10 6
0 10 -4 10 -10z m-55 -10 c3 -5 1 -10 -4 -10 -6 0 -11 5 -11 10 0 6 2 10 4 10
3 0 8 -4 11 -10z m-141 -15 c4 -13 2 -14 -14 -5 -23 13 -26 20 -6 20 8 0 16
-7 20 -15z m301 5 c-3 -5 -12 -10 -18 -10 -7 0 -6 4 3 10 19 12 23 12 15 0z
m-1415 -14 c0 -2 -7 -7 -16 -10 -8 -3 -12 -2 -9 4 6 10 25 14 25 6z m1030 -5
c0 -5 -7 -12 -16 -15 -14 -5 -15 -4 -4 9 14 17 20 19 20 6z m209 -8 c0 -11 -3
-13 -6 -5 -2 6 -12 12 -21 12 -10 0 -13 -3 -7 -8 6 -4 11 -18 13 -32 2 -23 1
-23 -12 5 -8 17 -15 26 -15 22 -1 -5 -6 -5 -13 -1 -8 5 -6 10 8 15 33 13 54
10 53 -8z m-1454 -3 c-3 -5 -12 -10 -18 -10 -7 0 -6 4 3 10 19 12 23 12 15 0z
m1195 -10 c0 -5 -2 -10 -4 -10 -3 0 -8 5 -11 10 -3 6 -1 10 4 10 6 0 11 -4 11
-10z m107 4 c-3 -4 -2 -15 4 -25 6 -11 6 -19 0 -19 -9 0 -21 23 -21 41 0 5 5
9 12 9 6 0 8 -3 5 -6z m-1012 -24 c3 -5 1 -10 -4 -10 -6 0 -11 5 -11 10 0 6 2
10 4 10 3 0 8 -4 11 -10z m1120 -1 c11 -16 1 -19 -13 -3 -7 8 -8 14 -3 14 5 0
13 -5 16 -11z m185 7 c0 -2 -8 -10 -17 -17 -16 -13 -17 -12 -4 4 13 16 21 21
21 13z m-417 -20 c4 -10 1 -13 -9 -9 -7 3 -14 9 -14 14 0 14 17 10 23 -5z
m110 -18 c6 -22 5 -22 -8 -4 -17 22 -20 40 -6 32 5 -3 11 -16 14 -28z m90 -10
c-9 -20 -10 -20 -10 10 0 22 4 29 10 23 7 -7 7 -18 0 -33z m146 6 c-7 -8 -21
-20 -32 -26 -23 -12 -16 3 17 39 23 24 36 12 15 -13z m-273 14 c5 -8 2 -9 -11
-5 -14 6 -17 3 -13 -15 3 -18 0 -23 -19 -24 -13 -1 -23 2 -23 7 0 5 8 9 17 9
9 0 13 3 10 7 -8 7 11 33 24 33 4 0 11 -5 15 -12z m-1226 -18 c0 -5 -4 -10
-10 -10 -5 0 -10 5 -10 10 0 6 5 10 10 10 6 0 10 -4 10 -10z m1328 -27 c0 -21
-3 -32 -5 -25 -3 6 -9 10 -13 7 -5 -3 -12 0 -16 6 -5 8 -3 9 6 4 10 -6 12 -3
8 13 -4 12 -2 20 3 16 5 -3 9 0 9 5 0 6 2 11 4 11 2 0 4 -17 4 -37z m-97 -16
c-10 -9 -11 -8 -5 6 3 10 9 15 12 12 3 -3 0 -11 -7 -18z m-73 1 c8 -10 4 -13
-14 -14 -13 -1 -24 2 -24 8 0 5 5 6 10 3 6 -3 10 -1 10 4 0 14 5 14 18 -1z
m-1006 -12 c7 4 8 2 4 -5 -9 -13 -26 -5 -25 12 0 9 2 8 6 -1 2 -6 10 -9 15 -6z
m961 -5 c3 -14 1 -18 -9 -14 -8 3 -14 0 -14 -7 0 -6 -5 -8 -11 -4 -8 5 -6 10
5 16 9 5 14 13 11 19 -4 5 -2 9 3 9 5 0 12 -9 15 -19z m327 9 c0 -5 -2 -10 -4
-10 -3 0 -8 5 -11 10 -3 6 -1 10 4 10 6 0 11 -4 11 -10z m-400 -4 c0 -3 -4 -8
-10 -11 -5 -3 -10 -1 -10 4 0 6 5 11 10 11 6 0 10 -2 10 -4z m17 -18 c-3 -8
-6 -5 -6 6 -1 11 2 17 5 13 3 -3 4 -12 1 -19z m240 -20 c-7 -10 -20 -21 -29
-24 -10 -3 -18 -10 -18 -15 0 -6 -7 -6 -19 1 -30 16 -36 12 -16 -10 18 -20 18
-21 -8 -48 -22 -21 -27 -23 -27 -9 0 9 7 17 15 17 8 0 15 5 15 10 0 6 -5 10
-11 10 -6 0 -9 10 -7 23 2 16 9 22 26 21 16 0 21 4 17 14 -3 7 -2 19 2 25 4 7
9 3 14 -9 7 -18 8 -18 8 1 1 16 3 17 11 5 5 -8 12 -11 16 -7 4 3 1 14 -7 23
-13 16 -12 16 7 4 18 -11 20 -17 11 -32z m128 22 c3 -5 -1 -10 -10 -10 -9 0
-13 5 -10 10 3 6 8 10 10 10 2 0 7 -4 10 -10z m-25 -24 c0 -3 -4 -8 -10 -11
-5 -3 -10 -1 -10 4 0 6 5 11 10 11 6 0 10 -2 10 -4z m-227 -25 c3 -14 -2 -18
-26 -19 -16 0 -34 -7 -38 -14 -4 -7 -11 -9 -15 -6 -9 10 19 35 34 30 6 -2 15
3 18 12 8 21 21 20 27 -3z m197 9 c0 -5 -8 -10 -17 -10 -15 0 -16 2 -3 10 19
12 20 12 20 0z m-330 -10 c0 -5 -2 -10 -4 -10 -3 0 -8 5 -11 10 -3 6 -1 10 4
10 6 0 11 -4 11 -10z m-30 -20 c0 -5 -2 -10 -4 -10 -3 0 -8 5 -11 10 -3 6 -1
10 4 10 6 0 11 -4 11 -10z m138 -17 c-10 -2 -15 -10 -11 -19 3 -8 0 -14 -6
-14 -6 0 -8 -7 -5 -15 4 -8 1 -15 -5 -15 -6 0 -11 5 -11 12 0 6 -6 4 -13 -7
-11 -13 -16 -15 -22 -6 -9 15 3 28 30 33 12 2 19 10 17 21 -2 12 4 17 20 16
16 -1 18 -3 6 -6z m-98 -33 c6 -11 7 -20 3 -20 -5 0 -14 9 -21 20 -7 11 -8 20
-2 20 5 0 14 -9 20 -20z m120 10 c0 -5 -4 -10 -10 -10 -5 0 -10 5 -10 10 0 6
5 10 10 10 6 0 10 -4 10 -10z m-840 -10 c0 -5 -2 -10 -4 -10 -3 0 -8 5 -11 10
-3 6 -1 10 4 10 6 0 11 -4 11 -10z m645 -18 c-3 -3 -11 0 -18 7 -9 10 -8 11 6
5 10 -3 15 -9 12 -12z m335 8 c0 -5 -2 -10 -4 -10 -3 0 -8 5 -11 10 -3 6 -1
10 4 10 6 0 11 -4 11 -10z m-400 -10 c0 -5 -4 -10 -10 -10 -5 0 -10 5 -10 10
0 6 5 10 10 10 6 0 10 -4 10 -10z m373 -16 c6 -6 -23 -44 -35 -44 -12 0 -10
19 5 35 13 16 21 18 30 9z m-208 -14 c3 -5 1 -10 -4 -10 -6 0 -11 -10 -11 -22
0 -17 -3 -19 -9 -9 -10 15 -3 51 10 51 4 0 11 -4 14 -10z m35 0 c0 -5 -4 -10
-10 -10 -5 0 -10 5 -10 10 0 6 5 10 10 10 6 0 10 -4 10 -10z m27 -11 c-9 -6
-17 -17 -17 -25 0 -9 -5 -12 -11 -8 -6 3 -15 0 -20 -7 -11 -18 -21 -6 -13 15
4 9 12 15 19 12 7 -2 21 4 31 15 9 10 20 17 23 13 3 -3 -2 -10 -12 -15z m-203
-5 c4 -10 1 -14 -6 -12 -15 5 -23 28 -10 28 5 0 13 -7 16 -16z m36 7 c0 -5 8
-11 17 -13 14 -2 12 -6 -9 -20 l-27 -18 1 30 c1 17 5 30 10 30 4 0 8 -4 8 -9z
m-59 -58 c12 -16 12 -17 -1 -7 -8 6 -22 14 -30 17 -13 5 -12 6 1 6 9 1 23 -7
30 -16z m29 7 c0 -5 -2 -10 -4 -10 -3 0 -8 5 -11 10 -3 6 -1 10 4 10 6 0 11
-4 11 -10z m130 -27 c0 -20 -24 -11 -28 10 -2 12 1 15 12 11 9 -3 16 -13 16
-21z m-23 -41 c-4 -14 -6 -14 -12 6 -9 28 -16 28 -43 -3 -26 -30 -27 -36 -7
-29 8 4 15 2 15 -3 0 -14 -57 -66 -62 -56 -11 21 0 45 40 87 39 41 45 44 59
31 8 -8 12 -23 10 -33z m116 21 c-7 -3 -13 -11 -13 -19 0 -8 -4 -14 -10 -14
-15 0 -12 11 7 32 9 10 19 15 22 12 3 -4 0 -9 -6 -11z m-279 -20 c-5 -5 -12
-12 -16 -18 -4 -6 -8 -2 -8 8 0 9 7 17 17 17 9 0 12 -3 7 -7z m29 -30 c-7 -2
-19 -2 -25 0 -7 3 -2 5 12 5 14 0 19 -2 13 -5z m207 -3 c0 -5 -4 -10 -10 -10
-5 0 -10 5 -10 10 0 6 5 10 10 10 6 0 10 -4 10 -10z m-268 -9 c-7 -4 -12 -14
-10 -21 2 -7 -2 -14 -8 -17 -7 -2 -10 5 -7 22 3 15 12 25 22 25 12 0 13 -2 3
-9z m-48 -17 c3 -8 2 -12 -4 -9 -6 3 -10 10 -10 16 0 14 7 11 14 -7z m109 -9
c-7 -21 -13 -19 -13 6 0 11 4 18 10 14 5 -3 7 -12 3 -20z m-28 -7 c-1 -13 -4
-24 -5 -25 -1 -2 -4 -7 -5 -13 -1 -5 -4 -13 -5 -17 -1 -5 -2 -16 -1 -25 1 -10
-1 -18 -5 -18 -4 0 -13 8 -20 18 -13 16 -14 16 -8 0 3 -10 1 -18 -5 -18 -18 0
-12 27 9 41 13 9 21 27 23 46 1 18 7 33 13 33 6 0 10 -10 9 -22z m215 18 c0
-3 -4 -8 -10 -11 -5 -3 -10 -1 -10 4 0 6 5 11 10 11 6 0 10 -2 10 -4z m-36
-39 c-9 -5 -18 -6 -21 -3 -4 3 -1 6 5 6 7 0 12 8 12 18 0 14 2 15 10 2 6 -10
4 -17 -6 -23z m-141 -4 c-7 -2 -13 -9 -13 -15 0 -5 -7 -16 -15 -24 -13 -14
-15 -14 -15 0 0 18 27 46 43 45 9 0 8 -2 0 -6z m110 -33 c-3 -11 -10 -20 -15
-20 -6 0 -7 7 -4 16 3 9 6 20 6 25 0 6 4 8 9 5 5 -3 7 -15 4 -26z m-223 -35
c0 -8 -4 -15 -9 -15 -5 0 -17 -3 -26 -7 -16 -5 -15 -4 1 15 22 26 34 28 34 7z
m-74 -20 c-4 -10 1 -15 14 -15 11 0 20 -5 20 -11 0 -6 -9 -8 -20 -4 -11 4 -20
2 -20 -4 0 -6 -5 -11 -11 -11 -8 0 -9 4 0 13 6 8 8 17 5 20 -3 3 -3 10 1 16 9
16 18 13 11 -4z m94 -20 c0 -1 -10 -11 -22 -23 l-23 -21 0 23 c0 18 6 24 23
24 12 0 22 -1 22 -3z m-190 -25 c0 -5 -2 -10 -4 -10 -3 0 -8 5 -11 10 -3 6 -1
10 4 10 6 0 11 -4 11 -10z m280 6 c0 -3 -4 -8 -10 -11 -5 -3 -10 -1 -10 4 0 6
5 11 10 11 6 0 10 -2 10 -4z m-193 -35 c29 -25 31 -30 18 -41 -13 -11 -14 -10
-8 6 6 17 5 17 -10 5 -10 -8 -21 -11 -24 -7 -4 4 -1 11 6 15 17 11 4 34 -15
27 -8 -3 -14 1 -14 9 0 22 11 18 47 -14z m173 -1 c0 -5 -4 -10 -10 -10 -5 0
-10 5 -10 10 0 6 5 10 10 10 6 0 10 -4 10 -10z m-334 -26 c-3 -8 -1 -14 4 -14
6 0 10 -4 10 -8 0 -13 -36 -9 -49 6 -11 11 -10 13 5 10 14 -2 18 2 16 16 -2
11 1 15 8 11 6 -4 9 -13 6 -21z m39 6 c3 -5 1 -10 -4 -10 -6 0 -11 5 -11 10 0
6 2 10 4 10 3 0 8 -4 11 -10z m49 -25 c-4 -9 0 -15 9 -15 8 0 17 6 20 13 2 7
8 8 13 3 5 -5 4 -11 -4 -13 -6 -3 -9 -10 -6 -15 4 -7 2 -8 -4 -4 -6 3 -27 7
-47 8 -40 1 -46 14 -12 28 32 13 37 12 31 -5z m185 -21 c-6 -8 -17 -14 -23
-13 -7 0 -6 2 2 6 6 2 12 11 12 19 0 9 5 12 10 9 8 -5 7 -11 -1 -21z m-128 -7
c-10 -9 -11 -8 -5 6 3 10 9 15 12 12 3 -3 0 -11 -7 -18z m-192 -20 c0 -9 -2
-8 -6 1 -2 6 -10 9 -15 6 -7 -4 -8 -2 -4 5 9 13 26 5 25 -12z m46 -3 c-14 -15
-22 -31 -18 -37 3 -6 1 -7 -6 -3 -14 9 17 66 36 66 6 0 1 -12 -12 -26z m105 1
c7 -9 8 -15 2 -15 -5 0 -12 7 -16 15 -3 8 -4 15 -2 15 2 0 9 -7 16 -15z m-28
-41 c-21 -15 -28 0 -10 20 9 9 15 10 20 3 4 -6 -1 -16 -10 -23z m153 16 c-10
-11 -22 -20 -26 -20 -5 0 -1 9 8 20 10 11 22 20 27 20 5 0 1 -9 -9 -20z m-310
0 c-3 -5 -12 -10 -18 -10 -7 0 -6 4 3 10 19 12 23 12 15 0z m30 0 c3 -5 1 -10
-4 -10 -6 0 -11 5 -11 10 0 6 2 10 4 10 3 0 8 -4 11 -10z m80 -10 c13 -6 15
-9 5 -9 -8 0 -22 4 -30 9 -18 12 -2 12 25 0z m-145 -30 c0 -5 -2 -10 -4 -10
-3 0 -8 5 -11 10 -3 6 -1 10 4 10 6 0 11 -4 11 -10z m127 4 c-3 -3 -12 -4 -19
-1 -8 3 -5 6 6 6 11 1 17 -2 13 -5z m-87 -14 c0 -5 -4 -10 -10 -10 -5 0 -10 5
-10 10 0 6 5 10 10 10 6 0 10 -4 10 -10z m34 -5 c-6 -16 -24 -21 -24 -7 0 11
11 22 21 22 5 0 6 -7 3 -15z m91 5 c3 -5 2 -10 -4 -10 -5 0 -13 5 -16 10 -3 6
-2 10 4 10 5 0 13 -4 16 -10z m-43 -12 c-9 -9 -9 -15 1 -26 11 -13 9 -14 -10
-1 -28 17 -29 26 -5 32 9 3 19 5 22 6 2 0 -1 -4 -8 -11z m-93 -24 c2 -2 -10
-2 -27 -1 -18 1 -34 7 -36 14 -4 9 3 9 27 1 18 -6 34 -12 36 -14z m231 1 c-13
-14 -26 -23 -28 -20 -4 4 38 44 47 45 3 0 -6 -11 -19 -25z m-154 -42 c-4 -4
-11 -1 -16 7 -16 25 -11 35 7 17 9 -9 13 -20 9 -24z m-116 17 c0 -5 -4 -10
-10 -10 -5 0 -10 5 -10 10 0 6 5 10 10 10 6 0 10 -4 10 -10z m44 -15 c-4 -8
-1 -22 6 -30 9 -10 9 -15 1 -15 -6 0 -11 5 -11 10 0 6 -10 10 -22 10 -21 0
-21 0 -2 19 23 24 35 26 28 6z m186 5 c0 -5 -4 -10 -10 -10 -5 0 -10 5 -10 10
0 6 5 10 10 10 6 0 10 -4 10 -10z m-150 -4 c0 -3 -4 -8 -10 -11 -5 -3 -10 -1
-10 4 0 6 5 11 10 11 6 0 10 -2 10 -4z m-87 -30 c4 -10 1 -13 -7 -10 -8 3 -17
1 -20 -4 -3 -6 -16 -8 -28 -4 -16 4 -19 2 -13 -8 5 -9 4 -11 -4 -6 -16 10 7
39 26 32 7 -3 13 -1 13 4 0 16 27 12 33 -4z m212 4 c-3 -5 -14 -10 -23 -9 -14
0 -13 2 3 9 27 11 27 11 20 0z m-305 -31 c0 -14 -17 -10 -23 5 -4 10 -1 13 9
9 7 -3 14 -9 14 -14z m115 -8 c-3 -6 -11 -8 -17 -5 -6 4 -5 9 3 15 16 10 23 4
14 -10z m-178 -23 c-3 -8 -6 -5 -6 6 -1 11 2 17 5 13 3 -3 4 -12 1 -19z m158
-7 c-6 -5 -25 10 -25 20 0 5 6 4 14 -3 8 -7 12 -15 11 -17z m55 19 c0 -5 -5
-10 -11 -10 -5 0 -7 5 -4 10 3 6 8 10 11 10 2 0 4 -4 4 -10z m-100 -20 c0 -5
-5 -10 -11 -10 -5 0 -7 5 -4 10 3 6 8 10 11 10 2 0 4 -4 4 -10z m-87 -39 c3
-14 1 -18 -9 -14 -8 3 -14 11 -14 19 0 21 17 17 23 -5z m107 5 c0 -4 -10 -6
-22 -3 -15 4 -30 0 -43 -13 -20 -19 -21 -19 -22 0 -1 12 6 20 20 22 36 6 67 4
67 -6z m-140 -32 c0 -3 -7 -1 -15 6 -8 7 -15 17 -15 22 0 5 7 3 15 -6 8 -8 15
-18 15 -22z m-30 -14 c0 -5 -5 -10 -11 -10 -5 0 -7 5 -4 10 3 6 8 10 11 10 2
0 4 -4 4 -10z m-38 -22 c-7 -7 -12 -8 -12 -2 0 14 12 26 19 19 2 -3 -1 -11 -7
-17z m151 4 c-4 -9 -8 -10 -13 -2 -3 6 -14 8 -22 5 -9 -4 -18 -3 -21 2 -3 5
10 9 28 9 24 0 32 -3 28 -14z m-89 -13 c-3 -5 -10 -7 -15 -3 -5 3 -7 10 -3 15
3 5 10 7 15 3 5 -3 7 -10 3 -15z m-99 1 c3 -5 2 -10 -4 -10 -5 0 -13 5 -16 10
-3 6 -2 10 4 10 5 0 13 -4 16 -10z m300 0 c-3 -5 -12 -10 -18 -10 -7 0 -6 4 3
10 19 12 23 12 15 0z m-145 -6 c0 -11 -28 -33 -34 -27 -13 13 -5 33 14 33 11
0 20 -3 20 -6z m-126 -38 c-3 -9 -10 -16 -15 -16 -5 0 -4 9 3 20 14 22 21 20
12 -4z m76 20 c0 -3 -4 -8 -10 -11 -5 -3 -10 -1 -10 4 0 6 5 11 10 11 6 0 10
-2 10 -4z m70 0 c0 -2 -8 -10 -17 -17 -16 -13 -17 -12 -4 4 13 16 21 21 21 13z
m-260 -36 c0 -5 -5 -10 -11 -10 -5 0 -7 5 -4 10 3 6 8 10 11 10 2 0 4 -4 4
-10z m35 0 c3 -5 1 -10 -4 -10 -6 0 -11 5 -11 10 0 6 2 10 4 10 3 0 8 -4 11
-10z m120 0 c-3 -5 -10 -10 -16 -10 -5 0 -9 5 -9 10 0 6 7 10 16 10 8 0 12 -4
9 -10z m43 3 c-10 -2 -18 -12 -18 -20 0 -9 -3 -14 -6 -10 -12 11 5 37 23 36
17 -1 17 -2 1 -6z m-118 -13 c0 -5 -2 -10 -4 -10 -3 0 -8 5 -11 10 -3 6 -1 10
4 10 6 0 11 -4 11 -10z m140 -4 c0 -2 -7 -9 -15 -16 -13 -11 -14 -10 -9 4 5
14 24 23 24 12z m80 -21 c-7 -9 -15 -13 -18 -10 -3 2 1 11 8 20 7 9 15 13 18
10 3 -2 -1 -11 -8 -20z m-149 -8 c-13 -13 -26 -3 -16 12 3 6 11 8 17 5 6 -4 6
-10 -1 -17z m-81 1 c0 -6 -3 -8 -7 -5 -3 4 -12 2 -20 -4 -13 -11 -19 2 -6 14
11 11 33 8 33 -5z m-120 -8 c0 -5 -5 -10 -11 -10 -5 0 -7 5 -4 10 3 6 8 10 11
10 2 0 4 -4 4 -10z m48 -25 c-6 -14 -13 -24 -14 -22 -6 6 9 47 17 47 5 0 3
-11 -3 -25z m182 21 c0 -3 -4 -8 -10 -11 -5 -3 -10 -1 -10 4 0 6 5 11 10 11 6
0 10 -2 10 -4z m77 -30 c-21 -21 -29 -8 -9 15 9 11 18 15 20 9 2 -5 -3 -16
-11 -24z m-155 1 c-7 -8 -9 -16 -6 -19 2 -3 -2 -8 -11 -12 -13 -5 -15 -1 -9
17 7 22 25 40 33 32 2 -3 -1 -11 -7 -18z m48 3 c0 -5 -5 -10 -11 -10 -5 0 -7
5 -4 10 3 6 8 10 11 10 2 0 4 -4 4 -10z m80 -30 c0 -5 -8 -10 -17 -10 -15 0
-16 2 -3 10 19 12 20 12 20 0z m-250 -4 c0 -3 -4 -8 -10 -11 -5 -3 -10 -1 -10
4 0 6 5 11 10 11 6 0 10 -2 10 -4z m116 -31 c-9 -9 -16 -13 -16 -8 0 12 22 34
28 28 2 -2 -3 -11 -12 -20z m99 5 c3 -5 1 -10 -4 -10 -6 0 -11 5 -11 10 0 6 2
10 4 10 3 0 8 -4 11 -10z m-235 -4 c0 -2 -7 -7 -16 -10 -8 -3 -12 -2 -9 4 6
10 25 14 25 6z m220 -26 c0 -5 -2 -10 -4 -10 -3 0 -8 5 -11 10 -3 6 -1 10 4
10 6 0 11 -4 11 -10z m-188 -42 c-8 -8 -9 -4 -5 13 4 13 8 18 11 10 2 -7 -1
-18 -6 -23z m168 23 c0 -6 -4 -13 -10 -16 -5 -3 -10 1 -10 9 0 9 5 16 10 16 6
0 10 -4 10 -9z m-327 -36 c-3 -9 -8 -14 -10 -11 -3 3 -2 9 2 15 9 16 15 13 8
-4z m67 -5 c0 -5 -2 -10 -4 -10 -3 0 -8 5 -11 10 -3 6 -1 10 4 10 6 0 11 -4
11 -10z m230 6 c0 -3 -4 -8 -10 -11 -5 -3 -10 -1 -10 4 0 6 5 11 10 11 6 0 10
-2 10 -4z m-238 -58 c-7 -7 -12 -8 -12 -2 0 14 12 26 19 19 2 -3 -1 -11 -7
-17z m-57 2 c3 -5 1 -10 -4 -10 -6 0 -11 5 -11 10 0 6 2 10 4 10 3 0 8 -4 11
-10z m-5 -55 c0 -8 -4 -15 -10 -15 -5 0 -7 7 -4 15 4 8 8 15 10 15 2 0 4 -7 4
-15z m210 11 c0 -3 -4 -8 -10 -11 -5 -3 -10 -1 -10 4 0 6 5 11 10 11 6 0 10
-2 10 -4z m-460 -286 c0 -5 -4 -10 -10 -10 -5 0 -10 5 -10 10 0 6 5 10 10 10
6 0 10 -4 10 -10z"/>
<path d="M3120 3619 c0 -5 5 -7 10 -4 6 3 10 8 10 11 0 2 -4 4 -10 4 -5 0 -10
-5 -10 -11z"/>
<path d="M7771 8167 c-11 -14 -29 -86 -19 -77 8 7 48 79 48 85 0 10 -18 5 -29
-8z"/>
<path d="M7673 7905 c-3 -9 -3 -18 -1 -21 3 -3 8 4 11 16 6 23 -1 27 -10 5z"/>
<path d="M7593 7723 c-10 -34 -10 -36 3 -19 12 17 20 56 11 56 -1 0 -7 -17
-14 -37z"/>
<path d="M7513 7545 c-23 -61 -22 -71 2 -25 25 47 35 80 26 80 -4 0 -17 -25
-28 -55z"/>
<path d="M6530 7391 c-14 -10 -47 -31 -75 -46 -50 -27 -135 -85 -135 -92 0
-11 195 108 225 137 24 25 18 25 -15 1z"/>
<path d="M7249 6978 c0 -2 -3 -16 -5 -33 -4 -28 -3 -29 11 -11 17 23 20 46 5
46 -5 0 -10 -1 -11 -2z"/>
<path d="M6573 6416 c-33 -24 -89 -71 -125 -105 -36 -33 -68 -61 -72 -61 -27
0 -270 -238 -271 -265 0 -7 -28 -45 -62 -84 -68 -78 -87 -88 -27 -15 20 25 35
46 33 49 -14 13 -289 -357 -289 -389 0 -27 24 -4 50 47 11 23 34 58 51 77 l31
35 -19 -35 c-10 -19 -22 -38 -27 -41 -4 -4 -3 -8 3 -10 7 -3 -18 -47 -58 -104
-39 -55 -82 -122 -97 -150 -15 -27 -30 -51 -35 -53 -4 -2 -5 -10 -2 -17 3 -10
18 3 45 38 22 29 56 68 77 87 43 42 147 173 261 330 172 237 255 344 309 399
86 88 293 311 288 311 -3 0 -31 -20 -64 -44z m-413 -379 c0 -2 -12 -14 -27
-28 l-28 -24 24 28 c23 25 31 32 31 24z"/>
<path d="M6297 6021 c-123 -136 -156 -176 -250 -303 -97 -134 -181 -234 -244
-291 -23 -21 -58 -58 -79 -84 l-37 -45 34 7 c33 7 52 22 43 36 -2 4 4 13 14
20 16 13 16 12 2 -6 -8 -11 3 -4 23 14 20 19 37 39 37 44 0 14 52 72 62 69 4
-1 8 4 8 12 0 16 51 69 71 74 8 2 21 10 30 18 8 8 21 14 28 14 33 0 58 72 29
83 -9 4 -7 6 3 6 22 1 49 33 49 58 0 11 9 28 20 38 11 10 18 21 15 25 -2 4 7
12 20 18 25 12 33 28 15 34 -5 2 10 29 33 60 23 31 43 55 45 53 2 -2 28 26 59
62 30 35 53 66 51 67 -1 1 -38 -36 -81 -83z"/>
<path d="M6406 5863 c-6 -14 -5 -15 5 -6 7 7 10 15 7 18 -3 3 -9 -2 -12 -12z"/>
<path d="M6146 5526 c-20 -23 -36 -46 -36 -50 0 -6 36 34 69 77 29 37 0 15
-33 -27z"/>
<path d="M5694 5455 c-9 -37 2 -41 14 -6 7 18 7 31 2 31 -5 0 -12 -11 -16 -25z"/>
<path d="M5614 5300 c-12 -5 -28 -18 -36 -29 -8 -12 -17 -18 -20 -16 -3 3 -8
-3 -11 -15 -3 -13 -1 -18 6 -13 6 4 8 0 4 -10 -10 -28 14 -19 44 15 27 29 45
66 37 73 -1 1 -13 -1 -24 -5z"/>
<path d="M5400 5025 c-7 -9 -8 -15 -2 -15 5 0 12 7 16 15 3 8 4 15 2 15 -2 0
-9 -7 -16 -15z"/>
<path d="M5800 5029 c0 -5 5 -7 10 -4 6 3 10 8 10 11 0 2 -4 4 -10 4 -5 0 -10
-5 -10 -11z"/>
<path d="M4452 4807 c-48 -45 -113 -110 -145 -144 -32 -34 -74 -69 -94 -78
-19 -9 -32 -19 -29 -22 12 -12 84 23 124 61 75 70 82 76 88 76 3 0 2 -6 -2
-12 -4 -7 5 -2 19 11 15 14 27 32 27 42 0 15 19 41 88 117 12 14 22 27 22 28
0 12 -20 -4 -98 -79z"/>
<path d="M5256 4822 c-3 -5 1 -9 9 -9 8 0 12 4 9 9 -3 4 -7 8 -9 8 -2 0 -6 -4
-9 -8z"/>
<path d="M5600 4750 c0 -5 5 -10 10 -10 6 0 10 5 10 10 0 6 -4 10 -10 10 -5 0
-10 -4 -10 -10z"/>
<path d="M5558 4696 c-2 -13 -10 -20 -20 -20 -10 1 -15 -2 -12 -8 3 -5 0 -15
-6 -23 -7 -8 -9 -15 -6 -15 7 0 55 53 68 75 4 7 1 12 -7 12 -8 0 -15 -10 -17
-21z"/>
<path d="M5095 4629 c-11 -16 -1 -19 13 -3 7 8 8 14 3 14 -5 0 -13 -5 -16 -11z"/>
<path d="M5065 4591 c-3 -5 -1 -12 5 -16 5 -3 10 1 10 9 0 18 -6 21 -15 7z"/>
<path d="M5020 4531 c-13 -26 -13 -31 3 -25 7 2 13 13 14 24 2 25 -3 25 -17 1z"/>
<path d="M4865 4380 c-3 -5 -1 -10 4 -10 6 0 11 5 11 10 0 6 -2 10 -4 10 -3 0
-8 -4 -11 -10z"/>
<path d="M5315 4359 c-4 -6 -5 -12 -2 -15 2 -3 7 2 10 11 7 17 1 20 -8 4z"/>
<path d="M4037 4223 c-4 -3 -7 -11 -7 -17 0 -6 5 -5 12 2 6 6 9 14 7 17 -3 3
-9 2 -12 -2z"/>
<path d="M6349 3423 c-13 -17 -13 -17 6 -3 11 8 22 16 24 17 2 2 0 3 -6 3 -6
0 -17 -8 -24 -17z"/>
<path d="M8165 1531 c-9 -16 9 -20 23 -5 10 12 10 14 -2 14 -8 0 -17 -4 -21
-9z"/>
<path d="M10160 3151 c-36 -32 -204 -202 -374 -377 -170 -176 -407 -418 -525
-539 -562 -573 -926 -952 -1251 -1300 -232 -248 -594 -620 -782 -803 -65 -63
-118 -118 -118 -123 0 -5 26 -9 59 -9 l58 0 284 293 c157 160 356 369 444 462
280 300 767 804 1266 1309 195 199 447 458 559 576 111 118 261 271 331 339
l129 124 0 54 c0 29 -3 53 -8 53 -4 0 -36 -26 -72 -59z"/>
<path d="M10065 2868 c-94 -95 -256 -263 -360 -373 -104 -110 -214 -225 -245
-255 -145 -144 -1039 -1066 -1420 -1465 -188 -196 -371 -386 -562 -580 l-187
-190 95 -3 96 -3 190 193 c105 106 256 265 337 353 156 170 345 366 772 800
555 564 1072 1097 1238 1275 95 102 184 195 197 207 23 21 25 28 22 118 l-3
96 -170 -173z"/>
<path d="M10045 2482 c-104 -108 -314 -323 -465 -477 -152 -154 -327 -334
-390 -400 -63 -66 -218 -226 -345 -355 -127 -129 -331 -338 -455 -465 -124
-126 -344 -355 -488 -507 l-263 -278 74 0 73 0 255 262 c140 145 292 303 339
353 76 80 439 456 835 865 135 140 511 523 858 876 l168 170 -3 77 -3 76 -190
-197z"/>
<path d="M10055 1678 c-99 -101 -265 -273 -369 -383 -104 -110 -246 -258 -316
-330 -69 -71 -209 -218 -310 -325 -101 -107 -268 -283 -371 -390 -103 -107
-197 -207 -209 -222 l-21 -28 78 1 78 0 94 102 c161 174 200 216 415 442 227
238 374 392 556 580 63 66 216 224 338 352 l223 231 -3 77 -3 76 -180 -183z"/>
<path d="M10180 1469 c-30 -35 -206 -221 -390 -413 -184 -193 -414 -432 -510
-533 -96 -101 -249 -260 -339 -353 l-163 -170 128 0 129 1 54 62 c52 59 306
325 711 742 102 105 243 252 313 327 l128 136 -3 132 -3 132 -55 -63z"/>
<path d="M10055 934 c-98 -104 -324 -337 -502 -519 -177 -181 -337 -349 -354
-372 l-31 -43 125 0 124 0 229 233 c248 252 370 379 507 526 l88 93 -3 136 -3
135 -180 -189z"/>
<path d="M10196 659 c-21 -24 -174 -182 -338 -351 l-300 -308 81 0 81 0 223
228 c123 125 240 246 261 269 l37 41 -3 83 -3 82 -39 -44z"/>
<path d="M10075 211 c-88 -87 -171 -170 -184 -184 l-24 -27 186 0 187 1 0 49
c0 28 -4 50 -9 50 -5 0 -32 -21 -60 -46 -70 -63 -64 -43 9 31 l61 61 -3 111
-3 111 -160 -157z"/>
</g>
</svg>
